<svg xmlns="http://www.w3.org/2000/svg" xmlns:xlink="http://www.w3.org/1999/xlink" width="500" zoomAndPan="magnify" viewBox="0 0 375 374.999991" height="500" preserveAspectRatio="xMidYMid meet" version="1.0"><defs><g/><clipPath id="64256b27b8"><path d="M 4 8 L 244.519531 8 L 244.519531 238 L 4 238 Z M 4 8 " clip-rule="nonzero"/></clipPath><clipPath id="37bf345033"><rect x="0" width="245" y="0" height="268"/></clipPath></defs><rect x="-37.5" width="450" fill="#ffffff" y="-37.499999" height="449.999989" fill-opacity="1"/><rect x="-37.5" width="450" fill="#000000" y="-37.499999" height="449.999989" fill-opacity="1"/><g transform="matrix(1, 0, 0, 1, 67, 53)"><g clip-path="url(#37bf345033)"><g clip-path="url(#64256b27b8)"><g fill="#ffffff" fill-opacity="1"><g transform="translate(2.153325, 220.382323)"><g><path d="M 233.640625 -100.058594 C 233.640625 -72.730469 224.691406 -48.273438 206.796875 -26.691406 L 203.585938 -29.351562 L 206.558594 -32.277344 L 246.152344 7.9375 L 187.773438 17.019531 L 170.253906 -3.710938 L 173.4375 -6.402344 L 175.519531 -2.792969 C 159.753906 6.296875 140.648438 10.839844 118.203125 10.839844 C 95.941406 10.839844 75.996094 5.808594 58.371094 -4.25 C 40.707031 -14.328125 27.015625 -28.113281 17.300781 -45.605469 C 7.613281 -63.042969 2.769531 -81.816406 2.769531 -101.925781 C 2.769531 -123.367188 8.007812 -142.386719 18.488281 -158.984375 C 28.9375 -175.535156 43.117188 -188.519531 61.03125 -197.9375 C 78.894531 -207.332031 97.949219 -212.027344 118.203125 -212.027344 C 139.707031 -212.027344 159.304688 -207.328125 176.992188 -197.929688 C 194.769531 -188.484375 208.664062 -175.148438 218.667969 -157.917969 C 228.648438 -140.730469 233.640625 -121.441406 233.640625 -100.058594 Z M 225.300781 -100.058594 C 225.300781 -119.945312 220.6875 -137.835938 211.457031 -153.734375 C 202.25 -169.589844 189.457031 -181.867188 173.082031 -190.566406 C 156.617188 -199.3125 138.324219 -203.6875 118.203125 -203.6875 C 99.324219 -203.6875 81.558594 -199.3125 64.910156 -190.558594 C 48.316406 -181.832031 35.191406 -169.824219 25.539062 -154.535156 C 15.917969 -139.292969 11.105469 -121.757812 11.105469 -101.925781 C 11.105469 -83.257812 15.601562 -65.832031 24.589844 -49.652344 C 33.550781 -33.523438 46.1875 -20.800781 62.503906 -11.492188 C 78.851562 -2.164062 97.417969 2.5 118.203125 2.5 C 139.160156 2.5 156.878906 -1.671875 171.355469 -10.015625 L 174.371094 -11.753906 L 192.628906 9.851562 L 189.445312 12.539062 L 188.804688 8.421875 L 236.832031 0.949219 L 237.476562 5.070312 L 234.503906 7.996094 L 197.972656 -29.109375 L 200.378906 -32.011719 C 216.992188 -52.050781 225.300781 -74.734375 225.300781 -100.058594 Z M 118.46875 -48.195312 C 123.519531 -48.195312 128.402344 -49.007812 133.121094 -50.636719 L 134.480469 -46.695312 L 131.542969 -43.734375 L 93.167969 -81.792969 L 153.113281 -89.246094 L 168.699219 -73.066406 L 165.699219 -70.175781 L 162.304688 -72.597656 C 168.015625 -80.589844 170.867188 -89.65625 170.867188 -99.792969 C 170.867188 -114.296875 165.628906 -126.789062 155.144531 -137.269531 C 144.664062 -147.75 132.351562 -152.992188 118.203125 -152.992188 C 104.359375 -152.992188 92.105469 -147.984375 81.433594 -137.976562 C 70.835938 -128.039062 65.539062 -116.734375 65.539062 -104.0625 C 65.539062 -88.945312 70.5625 -75.824219 80.605469 -64.699219 C 90.542969 -53.695312 103.164062 -48.195312 118.46875 -48.195312 Z M 118.46875 -39.855469 C 100.691406 -39.855469 86.007812 -46.273438 74.417969 -59.109375 C 62.941406 -71.820312 57.199219 -86.804688 57.199219 -104.0625 C 57.199219 -119.140625 63.375 -132.472656 75.726562 -144.058594 C 88.003906 -155.574219 102.160156 -161.328125 118.203125 -161.328125 C 134.652344 -161.328125 148.933594 -155.273438 161.042969 -143.164062 C 173.152344 -131.054688 179.207031 -116.597656 179.207031 -99.792969 C 179.207031 -87.875 175.835938 -77.191406 169.089844 -67.75 L 166.175781 -63.671875 L 148.554688 -81.957031 L 151.558594 -84.851562 L 152.070312 -80.714844 L 102.707031 -74.578125 L 102.195312 -78.714844 L 105.128906 -81.671875 L 142.171875 -44.9375 L 135.839844 -42.753906 C 130.238281 -40.824219 124.449219 -39.855469 118.46875 -39.855469 Z M 118.46875 -39.855469 "/></g></g></g></g></g></g></svg>